<svg width="32" height="32" viewBox="0 0 32 32" fill="none" xmlns="http://www.w3.org/2000/svg">
<path d="M26.6666 10.6667H5.33331V26.6667C5.33331 28.1333 6.53331 29.3333 7.99998 29.3333H24C25.4666 29.3333 26.6666 28.1333 26.6666 26.6667V10.6667Z" fill="black"/>
<path d="M24 2.66667H7.99998C6.53331 2.66667 5.33331 3.86667 5.33331 5.33334V11.3333H26.6666V5.33334C26.6666 3.86667 25.4666 2.66667 24 2.66667Z" fill="#0E0E0E"/>
<path d="M24 9.33334H7.99998C7.59998 9.33334 7.33331 9.06667 7.33331 8.66667V5.33334C7.33331 4.93334 7.59998 4.66667 7.99998 4.66667H24C24.4 4.66667 24.6666 4.93334 24.6666 5.33334V8.66667C24.6666 9.06667 24.4 9.33334 24 9.33334Z" fill="#9CCC65"/>
<path d="M22 6.66667H23.3333V8.00001H22V6.66667ZM19.3333 6.66667H20.6666V8.00001H19.3333V6.66667Z" fill="#33691E"/>
<path d="M24 15.3333H22C21.6 15.3333 21.3333 15.0667 21.3333 14.6667V13.3333C21.3333 12.9333 21.6 12.6667 22 12.6667H24C24.4 12.6667 24.6666 12.9333 24.6666 13.3333V14.6667C24.6666 15.0667 24.4 15.3333 24 15.3333Z" fill="#FF5252"/>
<path d="M9.99998 15.3333H7.99998C7.59998 15.3333 7.33331 15.0667 7.33331 14.6667V13.3333C7.33331 12.9333 7.59998 12.6667 7.99998 12.6667H9.99998C10.4 12.6667 10.6666 12.9333 10.6666 13.3333V14.6667C10.6666 15.0667 10.4 15.3333 9.99998 15.3333ZM14.6666 15.3333H12.6666C12.2666 15.3333 12 15.0667 12 14.6667V13.3333C12 12.9333 12.2666 12.6667 12.6666 12.6667H14.6666C15.0666 12.6667 15.3333 12.9333 15.3333 13.3333V14.6667C15.3333 15.0667 15.0666 15.3333 14.6666 15.3333ZM19.3333 15.3333H17.3333C16.9333 15.3333 16.6666 15.0667 16.6666 14.6667V13.3333C16.6666 12.9333 16.9333 12.6667 17.3333 12.6667H19.3333C19.7333 12.6667 20 12.9333 20 13.3333V14.6667C20 15.0667 19.7333 15.3333 19.3333 15.3333ZM9.99998 19.3333H7.99998C7.59998 19.3333 7.33331 19.0667 7.33331 18.6667V17.3333C7.33331 16.9333 7.59998 16.6667 7.99998 16.6667H9.99998C10.4 16.6667 10.6666 16.9333 10.6666 17.3333V18.6667C10.6666 19.0667 10.4 19.3333 9.99998 19.3333ZM14.6666 19.3333H12.6666C12.2666 19.3333 12 19.0667 12 18.6667V17.3333C12 16.9333 12.2666 16.6667 12.6666 16.6667H14.6666C15.0666 16.6667 15.3333 16.9333 15.3333 17.3333V18.6667C15.3333 19.0667 15.0666 19.3333 14.6666 19.3333ZM19.3333 19.3333H17.3333C16.9333 19.3333 16.6666 19.0667 16.6666 18.6667V17.3333C16.6666 16.9333 16.9333 16.6667 17.3333 16.6667H19.3333C19.7333 16.6667 20 16.9333 20 17.3333V18.6667C20 19.0667 19.7333 19.3333 19.3333 19.3333ZM9.99998 23.3333H7.99998C7.59998 23.3333 7.33331 23.0667 7.33331 22.6667V21.3333C7.33331 20.9333 7.59998 20.6667 7.99998 20.6667H9.99998C10.4 20.6667 10.6666 20.9333 10.6666 21.3333V22.6667C10.6666 23.0667 10.4 23.3333 9.99998 23.3333ZM14.6666 23.3333H12.6666C12.2666 23.3333 12 23.0667 12 22.6667V21.3333C12 20.9333 12.2666 20.6667 12.6666 20.6667H14.6666C15.0666 20.6667 15.3333 20.9333 15.3333 21.3333V22.6667C15.3333 23.0667 15.0666 23.3333 14.6666 23.3333ZM19.3333 23.3333H17.3333C16.9333 23.3333 16.6666 23.0667 16.6666 22.6667V21.3333C16.6666 20.9333 16.9333 20.6667 17.3333 20.6667H19.3333C19.7333 20.6667 20 20.9333 20 21.3333V22.6667C20 23.0667 19.7333 23.3333 19.3333 23.3333ZM9.99998 27.3333H7.99998C7.59998 27.3333 7.33331 27.0667 7.33331 26.6667V25.3333C7.33331 24.9333 7.59998 24.6667 7.99998 24.6667H9.99998C10.4 24.6667 10.6666 24.9333 10.6666 25.3333V26.6667C10.6666 27.0667 10.4 27.3333 9.99998 27.3333ZM14.6666 27.3333H12.6666C12.2666 27.3333 12 27.0667 12 26.6667V25.3333C12 24.9333 12.2666 24.6667 12.6666 24.6667H14.6666C15.0666 24.6667 15.3333 24.9333 15.3333 25.3333V26.6667C15.3333 27.0667 15.0666 27.3333 14.6666 27.3333ZM19.3333 27.3333H17.3333C16.9333 27.3333 16.6666 27.0667 16.6666 26.6667V25.3333C16.6666 24.9333 16.9333 24.6667 17.3333 24.6667H19.3333C19.7333 24.6667 20 24.9333 20 25.3333V26.6667C20 27.0667 19.7333 27.3333 19.3333 27.3333Z" fill="#4F4F4F"/>
<path d="M24 19.3333H22C21.6 19.3333 21.3333 19.0667 21.3333 18.6667V17.3333C21.3333 16.9333 21.6 16.6667 22 16.6667H24C24.4 16.6667 24.6666 16.9333 24.6666 17.3333V18.6667C24.6666 19.0667 24.4 19.3333 24 19.3333ZM24 23.3333H22C21.6 23.3333 21.3333 23.0667 21.3333 22.6667V21.3333C21.3333 20.9333 21.6 20.6667 22 20.6667H24C24.4 20.6667 24.6666 20.9333 24.6666 21.3333V22.6667C24.6666 23.0667 24.4 23.3333 24 23.3333ZM24 27.3333H22C21.6 27.3333 21.3333 27.0667 21.3333 26.6667V25.3333C21.3333 24.9333 21.6 24.6667 22 24.6667H24C24.4 24.6667 24.6666 24.9333 24.6666 25.3333V26.6667C24.6666 27.0667 24.4 27.3333 24 27.3333Z" fill="#868686"/>
</svg>
